<svg xmlns="http://www.w3.org/2000/svg" viewBox="0 0 141.54 103.62"><defs><style>.cls-1{fill:#fff;}.cls-2{fill:#ff6161;}</style></defs><g id="Calque_2" data-name="Calque 2"><g id="OBJECTS"><path class="cls-1" d="M8.66,52.1v7.48h6.78v3.6H8.66v14c0,3.22.91,5,3.55,5A10.56,10.56,0,0,0,15,82l.22,3.55a11.54,11.54,0,0,1-4.2.65,6.57,6.57,0,0,1-5.11-2C4.52,82.76,4,80.44,4,77.38V63.18H0v-3.6H4V53.34Z"/><path class="cls-1" d="M20.76,67.7c0-3.07-.05-5.7-.22-8.12h4.15l.16,5.11h.21c1.19-3.5,4-5.71,7.21-5.71a5,5,0,0,1,1.35.17v4.46A7,7,0,0,0,32,63.45c-3.33,0-5.7,2.53-6.35,6.08a14.17,14.17,0,0,0-.21,2.2V85.61H20.76Z"/><path class="cls-1" d="M52.49,85.61l-.37-3.28H52a9.72,9.72,0,0,1-8,3.87c-5.28,0-8-3.71-8-7.48C36,72.43,41.63,69,51.69,69V68.5c0-2.15-.59-6-5.92-6A12.93,12.93,0,0,0,39,64.42L37.92,61.3A16.14,16.14,0,0,1,46.47,59c8,0,9.9,5.44,9.9,10.65v9.74a36,36,0,0,0,.43,6.24Zm-.7-13.29c-5.16-.1-11,.81-11,5.87a4.18,4.18,0,0,0,4.46,4.51,6.49,6.49,0,0,0,6.3-4.35,5,5,0,0,0,.26-1.51Z"/><path class="cls-1" d="M65.4,59.58l5.11,14.63a66.47,66.47,0,0,1,2.1,6.67h.16c.59-2.16,1.34-4.31,2.21-6.67l5-14.63h5l-10.22,26H70.24l-9.9-26Z"/><path class="cls-1" d="M91.54,73.45c.11,6.4,4.19,9,8.93,9a17.2,17.2,0,0,0,7.21-1.34l.8,3.38a21,21,0,0,1-8.66,1.62c-8,0-12.8-5.27-12.8-13.13s4.63-14,12.21-14c8.5,0,10.76,7.48,10.76,12.27a18.49,18.49,0,0,1-.16,2.2Zm13.88-3.39c0-3-1.24-7.69-6.57-7.69-4.78,0-6.88,4.41-7.26,7.69Z"/><path class="cls-1" d="M115.85,47.42h4.73V85.61h-4.73Z"/><path class="cls-1" d="M80.26,42.34h0a1.19,1.19,0,0,1-1.63.08L61,27.46a4.24,4.24,0,0,1-1.37-2.38l-.25-1.27a1.25,1.25,0,0,1,1.4-1.48l1.28.19a4.27,4.27,0,0,1,2.45,1.26L80.27,40.7A1.19,1.19,0,0,1,80.26,42.34Z"/><polygon class="cls-1" points="65.25 45.22 69.75 33.83 65.93 30.19 63.41 43.46 65.25 45.22"/><polygon class="cls-1" points="74.74 46.41 77.15 40.31 75.1 38.36 73.75 45.47 74.74 46.41"/><polygon class="cls-1" points="82.4 27.2 71.25 32.26 67.42 28.61 80.56 25.45 82.4 27.2"/><polygon class="cls-1" points="84.06 36.62 78.08 39.33 76.03 37.38 83.08 35.68 84.06 36.62"/><path class="cls-2" d="M108,10.68H88.57V5.49A5.49,5.49,0,0,0,83.09,0H59.6a5.49,5.49,0,0,0-5.49,5.49v5.19H34.68A12.41,12.41,0,0,0,22.29,23.07V44h4.46V23.07a7.94,7.94,0,0,1,7.93-7.93h4.67V44h4.47V15.14H98.87V44h4.46V15.14H108a7.94,7.94,0,0,1,7.93,7.93V44h4.47V23.07A12.41,12.41,0,0,0,108,10.68ZM58.58,5.49a1,1,0,0,1,1-1H83.09a1,1,0,0,1,1,1v5.19H58.58Z"/><path class="cls-1" d="M2.2,101.45,0,94.81H1l1,3.27c.29.9.53,1.7.71,2.48h0c.19-.77.46-1.6.76-2.47L4.6,94.81h.91l-2.37,6.64Z"/><path class="cls-1" d="M11.17,99a2.32,2.32,0,0,1-2.37,2.53A2.26,2.26,0,0,1,6.52,99.1a2.33,2.33,0,0,1,2.36-2.53A2.26,2.26,0,0,1,11.17,99Zm-3.78,0c0,1.05.6,1.83,1.45,1.83s1.45-.77,1.45-1.85c0-.8-.41-1.83-1.43-1.83S7.39,98.17,7.39,99.07Z"/><path class="cls-1" d="M13.49,96.68l1,2.82c.1.31.22.69.3,1h0c.09-.28.19-.65.31-1l.94-2.8H17l-1.3,3.4a7.25,7.25,0,0,1-1.64,3,2.35,2.35,0,0,1-1.06.56l-.22-.73a2.16,2.16,0,0,0,.76-.42,2.61,2.61,0,0,0,.73-1,.53.53,0,0,0,.07-.2.77.77,0,0,0-.06-.23l-1.76-4.39Z"/><path class="cls-1" d="M21.39,101.45l-.06-.6h0a1.79,1.79,0,0,1-1.46.7,1.36,1.36,0,0,1-1.46-1.36c0-1.16,1-1.79,2.87-1.78v-.09a1,1,0,0,0-1.09-1.11,2.37,2.37,0,0,0-1.24.36L18.73,97a2.9,2.9,0,0,1,1.56-.43c1.46,0,1.81,1,1.81,2v1.78a6.69,6.69,0,0,0,.08,1.15ZM21.27,99c-.95,0-2,.14-2,1.07a.76.76,0,0,0,.82.82,1.18,1.18,0,0,0,1.15-.79.92.92,0,0,0,.05-.28Z"/><path class="cls-1" d="M28.59,96.68c0,.35,0,.73,0,1.31v2.77a2.73,2.73,0,0,1-.68,2.17,2.53,2.53,0,0,1-1.73.57,3.17,3.17,0,0,1-1.59-.39l.22-.66a2.66,2.66,0,0,0,1.4.37c.88,0,1.53-.46,1.53-1.66v-.53h0a1.7,1.7,0,0,1-1.51.8,2.13,2.13,0,0,1-2-2.33,2.29,2.29,0,0,1,2.14-2.53,1.6,1.6,0,0,1,1.49.83h0l0-.72Zm-.9,1.88a1.19,1.19,0,0,0-.05-.39,1.26,1.26,0,0,0-1.21-.92c-.83,0-1.42.7-1.42,1.8,0,.94.48,1.72,1.41,1.72a1.27,1.27,0,0,0,1.2-.89,1.47,1.47,0,0,0,.07-.46Z"/><path class="cls-1" d="M31.45,99.22a1.52,1.52,0,0,0,1.63,1.65,3.1,3.1,0,0,0,1.32-.24l.15.62a3.88,3.88,0,0,1-1.59.29,2.21,2.21,0,0,1-2.34-2.4,2.32,2.32,0,0,1,2.24-2.57,2,2,0,0,1,2,2.25,3.13,3.13,0,0,1,0,.4ZM34,98.6a1.24,1.24,0,0,0-1.2-1.41,1.44,1.44,0,0,0-1.33,1.41Z"/><path class="cls-1" d="M36.34,100.94l2.15-2.8.62-.74v0H36.54v-.7h3.63v.54L38,100a8.69,8.69,0,0,1-.61.75v0h2.79v.69H36.34Z"/><path class="cls-1" d="M48.54,101.27a3.2,3.2,0,0,1-1.37.27,2.26,2.26,0,0,1-2.37-2.43,2.42,2.42,0,0,1,2.56-2.53,2.87,2.87,0,0,1,1.2.25l-.2.67a2,2,0,0,0-1-.23,1.8,1.8,0,0,0,0,3.59,2.4,2.4,0,0,0,1.06-.24Z"/><path class="cls-1" d="M54.79,99a2.32,2.32,0,0,1-2.37,2.53,2.27,2.27,0,0,1-2.29-2.45,2.33,2.33,0,0,1,2.37-2.53A2.26,2.26,0,0,1,54.79,99Zm-3.78,0c0,1.05.6,1.83,1.45,1.83s1.44-.77,1.44-1.85c0-.8-.4-1.83-1.42-1.83S51,98.17,51,99.07Z"/><path class="cls-1" d="M56.86,98c0-.49,0-.89,0-1.29h.76l0,.77h0a1.66,1.66,0,0,1,1.5-.88,1.42,1.42,0,0,1,1.35,1h0a1.81,1.81,0,0,1,.53-.62,1.59,1.59,0,0,1,1.05-.34c.63,0,1.56.42,1.56,2.07v2.81h-.84v-2.7c0-.92-.34-1.47-1-1.47a1.13,1.13,0,0,0-1,.79,1.43,1.43,0,0,0-.07.43v3h-.84V98.59c0-.76-.34-1.31-1-1.31a1.19,1.19,0,0,0-1.07.87,1.16,1.16,0,0,0-.07.42v2.88h-.85Z"/><path class="cls-1" d="M66.05,98c0-.49,0-.89,0-1.29h.76l0,.77h0a1.66,1.66,0,0,1,1.5-.88,1.42,1.42,0,0,1,1.35,1h0a1.81,1.81,0,0,1,.53-.62,1.59,1.59,0,0,1,1.05-.34c.63,0,1.56.42,1.56,2.07v2.81H72v-2.7c0-.92-.34-1.47-1-1.47a1.13,1.13,0,0,0-1,.79,1.43,1.43,0,0,0-.07.43v3H69V98.59c0-.76-.34-1.31-1-1.31a1.19,1.19,0,0,0-1.07.87,1.16,1.16,0,0,0-.07.42v2.88h-.85Z"/><path class="cls-1" d="M75.73,99.22a1.52,1.52,0,0,0,1.63,1.65,3.13,3.13,0,0,0,1.32-.24l.15.62a3.88,3.88,0,0,1-1.59.29,2.21,2.21,0,0,1-2.34-2.4,2.32,2.32,0,0,1,2.23-2.57,2,2,0,0,1,2,2.25,3.13,3.13,0,0,1,0,.4Zm2.54-.62a1.24,1.24,0,0,0-1.21-1.41,1.44,1.44,0,0,0-1.32,1.41Z"/><path class="cls-1" d="M84.56,96.68l.94,2.68c.15.43.28.83.38,1.22h0c.11-.39.25-.79.4-1.22l.93-2.68h.9l-1.87,4.77h-.82l-1.81-4.77Z"/><path class="cls-1" d="M94.16,99a2.33,2.33,0,0,1-2.38,2.53A2.26,2.26,0,0,1,89.5,99.1a2.33,2.33,0,0,1,2.36-2.53A2.26,2.26,0,0,1,94.16,99Zm-3.78,0c0,1.05.6,1.83,1.44,1.83s1.45-.77,1.45-1.85c0-.8-.4-1.83-1.43-1.83S90.38,98.17,90.38,99.07Z"/><path class="cls-1" d="M100.22,100.15c0,.49,0,.92,0,1.3h-.77l0-.78h0a1.8,1.8,0,0,1-1.57.88c-.75,0-1.65-.41-1.65-2.08V96.68h.87v2.64c0,.91.27,1.52,1.06,1.52a1.23,1.23,0,0,0,1.22-1.23V96.68h.87Z"/><path class="cls-1" d="M102.52,100.56a2.23,2.23,0,0,0,1.14.34c.63,0,.93-.31.93-.7s-.25-.64-.89-.88c-.86-.3-1.26-.78-1.26-1.35a1.47,1.47,0,0,1,1.64-1.4,2.3,2.3,0,0,1,1.17.3l-.21.63a1.84,1.84,0,0,0-1-.28c-.51,0-.79.3-.79.65s.28.57.9.81c.83.32,1.25.73,1.25,1.44s-.65,1.42-1.78,1.42a2.71,2.71,0,0,1-1.34-.32Z"/><path class="cls-1" d="M110.92,96.68l.94,2.68c.15.43.28.83.38,1.22h0c.11-.39.25-.79.4-1.22l.93-2.68h.9l-1.87,4.77h-.82L110,96.68Z"/><path class="cls-1" d="M120.52,99a2.33,2.33,0,0,1-2.38,2.53,2.26,2.26,0,0,1-2.28-2.45,2.33,2.33,0,0,1,2.36-2.53A2.26,2.26,0,0,1,120.52,99Zm-3.78,0c0,1.05.6,1.83,1.44,1.83s1.45-.77,1.45-1.85c0-.8-.4-1.83-1.43-1.83S116.74,98.17,116.74,99.07Z"/><path class="cls-1" d="M126.58,100.15c0,.49,0,.92,0,1.3h-.77l0-.78h0a1.8,1.8,0,0,1-1.57.88c-.75,0-1.65-.41-1.65-2.08V96.68h.87v2.64c0,.91.27,1.52,1.06,1.52a1.23,1.23,0,0,0,1.22-1.23V96.68h.87Z"/><path class="cls-1" d="M129,94.46h.86v7H129Z"/><path class="cls-1" d="M132.78,99.22a1.53,1.53,0,0,0,1.64,1.65,3.13,3.13,0,0,0,1.32-.24l.14.62a3.79,3.79,0,0,1-1.58.29,2.21,2.21,0,0,1-2.34-2.4,2.31,2.31,0,0,1,2.23-2.57,2,2,0,0,1,2,2.25,3.13,3.13,0,0,1,0,.4Zm2.54-.62a1.23,1.23,0,0,0-1.2-1.41,1.44,1.44,0,0,0-1.33,1.41Z"/><path class="cls-1" d="M137.67,100.94l2.16-2.8.62-.74v0h-2.58v-.7h3.63v.54L139.37,100c-.2.27-.4.5-.61.75v0h2.78v.69h-3.87Z"/></g></g></svg>